<svg xmlns="http://www.w3.org/2000/svg" viewBox="0 0 440 455">
  <defs>
    <style>
      .cls-1 {
        fill: #fff;
      }

      .cls-2, .cls-3 {
        stroke: none;
      }

      .cls-3 {
        fill: #707070;
      }
    </style>
  </defs>
  <g id="Path_2" data-name="Path 2" class="cls-1">
    <path class="cls-2" d="M 220 450 C 205.4205017089844 450 190.8513793945312 448.4813842773438 176.6974334716797 445.4862976074219 C 162.9040679931641 442.5675659179688 149.3358764648438 438.2121276855469 136.3697509765625 432.5409240722656 C 123.6349411010742 426.970947265625 111.3511276245117 420.0760498046875 99.85943603515625 412.0477600097656 C 88.47243499755859 404.0925598144531 77.76374816894531 394.9557495117188 68.03081512451172 384.8909912109375 C 58.29506301879883 374.8233032226562 49.45574951171875 363.7446899414062 41.75843811035156 351.9626770019531 C 33.98606109619141 340.0659484863281 27.31031227111816 327.3473815917969 21.91656303405762 314.1603698730469 C 16.4223747253418 300.7279357910156 12.2026252746582 286.6705017089844 9.374500274658203 272.3785705566406 C 6.471812725067139 257.7098083496094 5 242.6104431152344 5 227.5 C 5 212.3895568847656 6.471812725067139 197.2901916503906 9.374500274658203 182.6214447021484 C 12.2026252746582 168.3294982910156 16.4223747253418 154.2720642089844 21.91656303405762 140.8396301269531 C 27.31031227111816 127.6526260375977 33.98606109619141 114.9340591430664 41.75843811035156 103.0373153686523 C 49.45574951171875 91.25531005859375 58.29506301879883 80.17668914794922 68.03081512451172 70.10900115966797 C 77.76374816894531 60.04425048828125 88.47243499755859 50.90743637084961 99.85943603515625 42.95225143432617 C 111.3511276245117 34.9239387512207 123.6349411010742 28.02906227111816 136.3697509765625 22.45906257629395 C 149.3358764648438 16.78787422180176 162.9040679931641 12.43243789672852 176.6974334716797 9.513687133789062 C 190.8513793945312 6.518624782562256 205.4205017089844 5 220 5 C 234.5794982910156 5 249.1486206054688 6.518624782562256 263.3025512695312 9.513687133789062 C 277.095947265625 12.43243789672852 290.6641235351562 16.78787422180176 303.6302490234375 22.45906257629395 C 316.3650512695312 28.02906227111816 328.6488647460938 34.9239387512207 340.1405639648438 42.95225143432617 C 351.5275573730469 50.90743637084961 362.2362365722656 60.04425048828125 371.9691772460938 70.10900115966797 C 381.7049255371094 80.17668914794922 390.5442504882812 91.25531005859375 398.2415771484375 103.0373153686523 C 406.0139465332031 114.9340591430664 412.689697265625 127.6526260375977 418.0834350585938 140.8396301269531 C 423.57763671875 154.2720642089844 427.79736328125 168.3294982910156 430.62548828125 182.6214447021484 C 433.5281982421875 197.2901916503906 435 212.3895568847656 435 227.5 C 435 242.6104431152344 433.5281982421875 257.7098083496094 430.62548828125 272.3785705566406 C 427.79736328125 286.6705017089844 423.57763671875 300.7279357910156 418.0834350585938 314.1603698730469 C 412.689697265625 327.3473815917969 406.0139465332031 340.0659484863281 398.2415771484375 351.9626770019531 C 390.5442504882812 363.7446899414062 381.7049255371094 374.8233032226562 371.9691772460938 384.8909912109375 C 362.2362365722656 394.9557495117188 351.5275573730469 404.0925598144531 340.1405639648438 412.0477600097656 C 328.6488647460938 420.0760498046875 316.3650512695312 426.970947265625 303.6302490234375 432.5409240722656 C 290.6641235351562 438.2121276855469 277.095947265625 442.5675659179688 263.3025512695312 445.4862976074219 C 249.1486206054688 448.4813842773438 234.5794982910156 450 220 450 Z"/>
    <path class="cls-3" d="M 220 10 C 104.2055969238281 10 10 107.570068359375 10 227.5 C 10 347.429931640625 104.2055969238281 445 220 445 C 335.7944030761719 445 430 347.429931640625 430 227.5 C 430 107.570068359375 335.7944030761719 10 220 10 M 220 0 C 341.5025939941406 0 440 101.8551940917969 440 227.5 C 440 353.1448059082031 341.5025939941406 455 220 455 C 98.49740600585938 455 0 353.1448059082031 0 227.5 C 0 101.8551940917969 98.49740600585938 0 220 0 Z"/>
  </g>
</svg>
