<svg xmlns="http://www.w3.org/2000/svg" viewBox="0 0 285.984 346.346"><path d="M178.37 10.626q0 6.782-5.2 18.99-5.652 16.5-10.06 21.929t-13.451 5.426q-19.442 0-19.442-12.886 0-10.173 11.982-29.164 6.33-10.173 10.173-12.547T164.806 0q13.564 0 13.564 10.626zM33.459 127.732l6.33-17.86 41.824-18.99q37.3-17.634 54.032-17.634 13.112 0 13.112 11.982 0 4.3-3.5 13.9t-11.756 27.468q-8.252 17.86-19.1 40.58t-22.607 46.684q16.956-11.53 29.729-21.364t29.947-24.751l.452 16.051q-43.406 37.528-80.482 74.6-22.381 43.632-39.563 65.788T6.105 346.341q-6.1 0-6.1-11.982a72.385 72.385 0 0 1 6.556-29.5q6.556-14.808 20.121-31.2a335.524 335.524 0 0 1 32.1-33.346q28.711-56.519 40.58-82.178t11.869-33.572q0-4.974-4.748-4.974-2.487 0-33.685 14.582t-38.885 14.582q-4.748 0-4.748-5.2-.001-3.387 4.294-15.821zm252.525 40.919v15.147q-24.19 23.738-39.45 36.85t-28.485 20.347q-13.225 7.234-25.885 7.234-12.434 0-22.833-9.834t-16.279-25.772a96.893 96.893 0 0 1-5.878-33.8 54.556 54.556 0 0 1 6.782-27.355q6.782-11.982 26.225-30.972 23.06-22.607 42.841-34.928t31.085-12.321a18.763 18.763 0 0 1 13.791 5.652 19.309 19.309 0 0 1 5.652 14.243q0 7.234-7.46 20.573a116.438 116.438 0 0 1-16.729 23.173q-9.269 9.834-14.695 9.834-5.878 0-5.878-6.33.226-1.809.339-3.391t.113-3.165q0-2.713-1.922-3.052t-4.635 1.7q-22.607 15.825-30.972 22.268a67.809 67.809 0 0 0-13.225 13 22.8 22.8 0 0 0-4.861 13.791q0 13.338 8.591 21.7t22.381 8.365q14.243 0 34.25-10.965t47.137-31.991z" fill="#333"/></svg>